<?xml version="1.0" encoding="UTF-8"?>
<svg xmlns="http://www.w3.org/2000/svg" width="1900" height="1480" viewBox="0 0 1900 1480" role="img" aria-labelledby="title description">
  <title id="title">171Yb atom replacement, computation, and spin-resolved readout timing</title>
  <desc id="description">Five semantic stages; reservoir maintenance and stationary-array computation run concurrently. The macrocycle follows Li et al. 2025, with separate preparation and readout microcycle scales.</desc>
  <defs>
    <marker id="arrow-ink" markerWidth="8" markerHeight="8" refX="7" refY="4" orient="auto"><path d="M0,0 L8,4 L0,8 Z" fill="#15211e"/></marker>
    <pattern id="reload-pattern" width="16" height="16" patternUnits="userSpaceOnUse"><rect width="16" height="16" fill="#eef4f2"/><path d="M-4 16 L16 -4 M4 20 L20 4" stroke="#8ca8a0" stroke-width="3"/></pattern>
    <style>
      text { font-family: Arial, sans-serif; fill: #15211e; letter-spacing: 0; }
      .title { font-size: 31px; font-weight: 700; }
      .subtitle { font-size: 15px; fill: #53615d; }
      .section { font-size: 13px; font-weight: 700; fill: #c34c36; }
      .stage-number { font-size: 11px; font-weight: 700; fill: #c34c36; }
      .stage-label { font-size: 15px; font-weight: 700; }
      .substage { font-size: 10px; font-weight: 700; }
      .subtime { font-size: 9px; fill: #53615d; }
      .track-label { font-size: 11px; font-weight: 700; fill: #53615d; }
      .lane-label { font-size: 13px; }
      .lane-note { font-size: 10px; fill: #71807a; }
      .pulse-label { font-size: 10px; font-weight: 700; }
      .pulse-light { font-size: 10px; font-weight: 700; fill: #ffffff; }
      .note { font-size: 12px; fill: #53615d; }
      .micro-title { font-size: 16px; font-weight: 700; }
      .micro-label { font-size: 12px; }
      .micro-note { font-size: 11px; fill: #53615d; }
      .stage { fill: #f1f4f2; stroke: #bfcac5; stroke-width: 1; }
      .subcell { fill: #fbfcfb; stroke: #d7dfdb; stroke-width: 1; }
      .lane { fill: #ffffff; stroke: #d9e1dd; stroke-width: 1; }
      .grid { stroke: #e3e8e5; stroke-width: 1; }
      .panel { fill: #fbfcfb; stroke: #b9c4bf; stroke-width: 1.2; }
    </style>
  </defs>

  <rect width="1900" height="1480" fill="#fbfcfb"/>
  <rect x="28" y="24" width="1844" height="1432" fill="#ffffff" stroke="#b9c4bf"/>
  <text x="72" y="68" class="title">171Yb replacement and compute-cycle timing</text>
  <text x="72" y="94" class="subtitle">Li et al. (2025) macrocycle with preparation and spin-readout microcycles; horizontal widths are schematic unless a duration is printed.</text>

  <text x="72" y="132" class="section">I. SYSTEM CADENCE</text>
  <text x="360" y="132" class="note">relative cycle time →</text>
  <line x1="360" y1="140" x2="1830" y2="140" stroke="#15211e" stroke-width="1.5" marker-end="url(#arrow-ink)"/>

  <!-- Five semantic stages -->
  <rect x="360" y="152" width="160" height="52" class="stage"/>
  <rect x="520" y="152" width="450" height="52" class="stage"/>
  <rect x="970" y="152" width="210" height="52" class="stage"/>
  <rect x="1180" y="152" width="270" height="52" class="stage"/>
  <rect x="1450" y="152" width="380" height="52" class="stage"/>
  <text x="376" y="171" class="stage-number">01</text><text x="376" y="192" class="stage-label">Reservoir supply</text>
  <text x="536" y="171" class="stage-number">02</text><text x="536" y="192" class="stage-label">Load + qualify</text>
  <text x="986" y="171" class="stage-number">03</text><text x="986" y="192" class="stage-label">Prepare + handoff</text>
  <text x="1196" y="171" class="stage-number">04</text><text x="1196" y="192" class="stage-label">Stationary compute</text>
  <text x="1466" y="171" class="stage-number">05</text><text x="1466" y="192" class="stage-label">Readout + record</text>

  <!-- Resolved operation tier -->
  <rect x="360" y="214" width="160" height="54" class="subcell"/>
  <rect x="520" y="214" width="90" height="54" class="subcell"/><rect x="610" y="214" width="50" height="54" class="subcell"/>
  <rect x="660" y="214" width="140" height="54" class="subcell"/><rect x="800" y="214" width="90" height="54" class="subcell"/><rect x="890" y="214" width="80" height="54" class="subcell"/>
  <rect x="970" y="214" width="90" height="54" class="subcell"/><rect x="1060" y="214" width="120" height="54" class="subcell"/>
  <rect x="1180" y="214" width="270" height="54" class="subcell"/>
  <rect x="1450" y="214" width="90" height="54" class="subcell"/><rect x="1540" y="214" width="110" height="54" class="subcell"/>
  <rect x="1650" y="214" width="90" height="54" class="subcell"/><rect x="1740" y="214" width="90" height="54" class="subcell"/>
  <text x="440" y="237" text-anchor="middle" class="substage">steady reservoir</text><text x="440" y="254" text-anchor="middle" class="subtime">continuous source</text>
  <text x="565" y="237" text-anchor="middle" class="substage">scheduled load 2 ms</text><text x="565" y="254" text-anchor="middle" class="subtime">τload = 0.84 ms</text>
  <g aria-label="move 0.5 ms"><text x="635" y="237" text-anchor="middle" class="substage">move</text><text x="635" y="254" text-anchor="middle" class="subtime">0.5 ms</text></g>
  <text x="730" y="237" text-anchor="middle" class="substage">LAC 6 ms</text><text x="730" y="254" text-anchor="middle" class="subtime">single occupancy</text>
  <g aria-label="identification image 4 ms"><text x="845" y="237" text-anchor="middle" class="substage">identification</text><text x="845" y="254" text-anchor="middle" class="subtime">image 4 ms</text></g>
  <text x="930" y="237" text-anchor="middle" class="substage">cool 6 ms</text><text x="930" y="254" text-anchor="middle" class="subtime">about 10 µK</text>
  <g aria-label="prepare ³P₀ 0.7 ms"><text x="1015" y="237" text-anchor="middle" class="substage">prepare ³P₀</text><text x="1015" y="254" text-anchor="middle" class="subtime">0.7 ms</text></g>
  <text x="1120" y="237" text-anchor="middle" class="substage">overlap + handoff</text><text x="1120" y="254" text-anchor="middle" class="subtime">depth ramps</text>
  <text x="1315" y="237" text-anchor="middle" class="substage">hold / RF / calibrated gate slot</text><text x="1315" y="254" text-anchor="middle" class="subtime">variable interval T</text>
  <text x="1495" y="237" text-anchor="middle" class="substage">map + depump</text><text x="1495" y="254" text-anchor="middle" class="subtime">15 µs</text>
  <text x="1595" y="237" text-anchor="middle" class="substage">image 4 ms</text><text x="1595" y="254" text-anchor="middle" class="subtime">first spin state</text>
  <text x="1695" y="237" text-anchor="middle" class="substage">map + depump</text><text x="1695" y="254" text-anchor="middle" class="subtime">15 µs</text>
  <text x="1785" y="237" text-anchor="middle" class="substage">image 4 ms</text><text x="1785" y="254" text-anchor="middle" class="subtime">second spin state</text>

  <!-- Parallel track summary -->
  <text x="334" y="291" text-anchor="end" class="track-label">MOBILE / RESERVOIR</text>
  <rect x="360" y="276" width="820" height="24" fill="#eaf4f0" stroke="#9ebbb1"/>
  <text x="770" y="292" text-anchor="middle" class="pulse-label">batch n: load → qualify → prepare → handoff</text>
  <rect x="1180" y="276" width="270" height="24" fill="url(#reload-pattern)" stroke="#8ca8a0"/>
  <text x="1315" y="292" text-anchor="middle" class="pulse-label">batch n+1 reloads in parallel</text>
  <text x="334" y="321" text-anchor="end" class="track-label">STATIONARY ARRAY</text>
  <rect x="1060" y="306" width="770" height="24" fill="#edf0f6" stroke="#9aa5b9"/>
  <text x="1445" y="322" text-anchor="middle" class="pulse-label">receive batch n → compute during reload → spin-resolved readout</text>

  <!-- Macro grid -->
  <g class="grid">
    <line x1="520" y1="268" x2="520" y2="984"/><line x1="610" y1="268" x2="610" y2="984"/><line x1="660" y1="268" x2="660" y2="984"/>
    <line x1="800" y1="268" x2="800" y2="984"/><line x1="890" y1="268" x2="890" y2="984"/><line x1="970" y1="268" x2="970" y2="984"/>
    <line x1="1060" y1="268" x2="1060" y2="984"/><line x1="1180" y1="268" x2="1180" y2="984"/><line x1="1450" y1="268" x2="1450" y2="984"/>
    <line x1="1540" y1="268" x2="1540" y2="984"/><line x1="1650" y1="268" x2="1650" y2="984"/><line x1="1740" y1="268" x2="1740" y2="984"/><line x1="1830" y1="268" x2="1830" y2="984"/>
  </g>

  <!-- Optical and control lanes -->
  <text x="334" y="362" text-anchor="end" class="lane-label">upstream source + 1036 nm ODT</text><text x="334" y="376" text-anchor="end" class="lane-note">3D MOT and continuous delivery</text>
  <rect x="360" y="340" width="1470" height="38" class="lane"/><rect x="372" y="349" width="1446" height="20" rx="3" fill="#6a8278"/><text x="1095" y="364" text-anchor="middle" class="pulse-light">continuous source flux</text>

  <text x="334" y="404" text-anchor="end" class="lane-label">1D reservoir molasses</text><text x="334" y="418" text-anchor="end" class="lane-note">disabled during fluorescence images</text>
  <rect x="360" y="382" width="1470" height="38" class="lane"/><rect x="372" y="391" width="416" height="20" rx="3" fill="#208c65"/><rect x="890" y="391" width="650" height="20" rx="3" fill="#208c65"/><rect x="1650" y="391" width="90" height="20" rx="3" fill="#208c65"/>
  <text x="580" y="406" text-anchor="middle" class="pulse-light">reservoir cooling</text><text x="845" y="406" text-anchor="middle" class="pulse-label" fill="#c34c36">OFF</text><text x="1595" y="406" text-anchor="middle" class="pulse-label" fill="#c34c36">OFF</text><text x="1785" y="406" text-anchor="middle" class="pulse-label" fill="#c34c36">OFF</text>

  <text x="334" y="446" text-anchor="end" class="lane-label">mobile tweezer array (488 nm)</text><text x="334" y="460" text-anchor="end" class="lane-note">capture, movement, selection, handoff</text>
  <rect x="360" y="424" width="1470" height="38" class="lane"/><rect x="520" y="433" width="660" height="20" rx="3" fill="#176f8f"/><rect x="1190" y="433" width="250" height="20" rx="3" fill="url(#reload-pattern)"/><text x="850" y="448" text-anchor="middle" class="pulse-light">load → move → qualify → prepare → handoff</text><text x="1315" y="448" text-anchor="middle" class="pulse-label">next batch</text>

  <text x="334" y="488" text-anchor="end" class="lane-label">stationary tweezer array (488 nm)</text><text x="334" y="502" text-anchor="end" class="lane-note">storage, computation, readout</text>
  <rect x="360" y="466" width="1470" height="38" class="lane"/><rect x="1060" y="475" width="758" height="20" rx="3" fill="#415e78"/><text x="1439" y="490" text-anchor="middle" class="pulse-light">receive → store / compute → measure</text>

  <text x="334" y="530" text-anchor="end" class="lane-label">light-assisted collision beam</text><text x="334" y="544" text-anchor="end" class="lane-note">parity projection</text>
  <rect x="360" y="508" width="1470" height="38" class="lane"/><rect x="660" y="517" width="140" height="20" rx="3" fill="#bc5a37"/><text x="730" y="532" text-anchor="middle" class="pulse-light">LAC 6 ms</text>

  <text x="334" y="572" text-anchor="end" class="lane-label">556 nm fluorescence imaging</text><text x="334" y="586" text-anchor="end" class="lane-note">occupancy and spin images</text>
  <rect x="360" y="550" width="1470" height="38" class="lane"/><rect x="800" y="559" width="90" height="20" rx="3" fill="#33865b"/><rect x="1540" y="559" width="110" height="20" rx="3" fill="#33865b"/><rect x="1740" y="559" width="90" height="20" rx="3" fill="#33865b"/>
  <text x="845" y="574" text-anchor="middle" class="pulse-light">4 ms</text><text x="1595" y="574" text-anchor="middle" class="pulse-light">image 4 ms</text><text x="1785" y="574" text-anchor="middle" class="pulse-light">image 4 ms</text>

  <text x="334" y="614" text-anchor="end" class="lane-label">local 556 nm + molasses cooling</text><text x="334" y="628" text-anchor="end" class="lane-note">cool fresh atoms to about 10 µK</text>
  <rect x="360" y="592" width="1470" height="38" class="lane"/><rect x="890" y="601" width="80" height="20" rx="3" fill="#33865b"/><text x="930" y="616" text-anchor="middle" class="pulse-light">6 ms</text>

  <text x="334" y="656" text-anchor="end" class="lane-label">488 nm trap modulation</text><text x="334" y="670" text-anchor="end" class="lane-note">1.8 µs period; 900 ns trap-off windows</text>
  <rect x="360" y="634" width="1470" height="38" class="lane"/><rect x="970" y="643" width="90" height="20" rx="3" fill="#415e78"/><rect x="1450" y="643" width="90" height="20" rx="3" fill="#415e78"/><rect x="1650" y="643" width="90" height="20" rx="3" fill="#415e78"/><text x="1015" y="658" text-anchor="middle" class="pulse-light">modulated</text><text x="1495" y="658" text-anchor="middle" class="pulse-light">modulated</text><text x="1695" y="658" text-anchor="middle" class="pulse-light">modulated</text>

  <text x="334" y="698" text-anchor="end" class="lane-label">global σ+ 556 nm</text><text x="334" y="712" text-anchor="end" class="lane-note">ground-state spin polarization</text>
  <rect x="360" y="676" width="1470" height="38" class="lane"/><rect x="970" y="685" width="40" height="20" rx="3" fill="#26996d"/><text x="990" y="700" text-anchor="middle" class="pulse-light">OP</text>

  <text x="334" y="740" text-anchor="end" class="lane-label">local 556 + 1539 nm</text><text x="334" y="754" text-anchor="end" class="lane-note">Raman pumping through 5d6s ³D₁</text>
  <rect x="360" y="718" width="1470" height="38" class="lane"/><rect x="1010" y="727" width="50" height="20" rx="3" fill="#b67725"/><text x="1035" y="742" text-anchor="middle" class="pulse-light">pump</text>

  <text x="334" y="782" text-anchor="end" class="lane-label">RF nuclear-spin control</text><text x="334" y="796" text-anchor="end" class="lane-note">global one-qubit rotation</text>
  <rect x="360" y="760" width="1470" height="38" class="lane"/><rect x="1210" y="769" width="92" height="20" rx="3" fill="#7653a6"/><text x="1256" y="784" text-anchor="middle" class="pulse-light">Rφ(θ)</text>

  <text x="334" y="824" text-anchor="end" class="lane-label">302 nm Rydberg control</text><text x="334" y="838" text-anchor="end" class="lane-note">separately calibrated interaction slot</text>
  <rect x="360" y="802" width="1470" height="38" class="lane"/><rect x="1340" y="811" width="18" height="20" rx="3" fill="#5b33c5"/><rect x="1366" y="811" width="18" height="20" rx="3" fill="#5b33c5"/><rect x="1392" y="811" width="18" height="20" rx="3" fill="#5b33c5"/><text x="1375" y="837" text-anchor="middle" class="micro-note">calibrated CZ waveform</text>

  <text x="334" y="866" text-anchor="end" class="lane-label">649 + 770 nm Raman mapping</text><text x="334" y="880" text-anchor="end" class="lane-note">selected ³P₀ spin state → ³P₂</text>
  <rect x="360" y="844" width="1470" height="38" class="lane"/><rect x="1450" y="853" width="90" height="20" rx="3" fill="#c74d36"/><rect x="1650" y="853" width="90" height="20" rx="3" fill="#c74d36"/><text x="1495" y="868" text-anchor="middle" class="pulse-light">400 ns ×8</text><text x="1695" y="868" text-anchor="middle" class="pulse-light">400 ns ×8</text>

  <text x="334" y="908" text-anchor="end" class="lane-label">497 nm depump</text><text x="334" y="922" text-anchor="end" class="lane-note">³P₂ → 6s6d ³D₂ → ¹S₀</text>
  <rect x="360" y="886" width="1470" height="38" class="lane"/><rect x="1450" y="895" width="90" height="20" rx="3" fill="#2e9e9a"/><rect x="1650" y="895" width="90" height="20" rx="3" fill="#2e9e9a"/><text x="1495" y="910" text-anchor="middle" class="pulse-light">depump</text><text x="1695" y="910" text-anchor="middle" class="pulse-light">depump</text>

  <text x="334" y="950" text-anchor="end" class="lane-label">camera + classical record</text><text x="334" y="964" text-anchor="end" class="lane-note">ordered bright/dark outcomes</text>
  <rect x="360" y="928" width="1470" height="38" class="lane"/><rect x="1540" y="937" width="110" height="20" rx="3" fill="#15211e"/><rect x="1740" y="937" width="90" height="20" rx="3" fill="#15211e"/><text x="1595" y="952" text-anchor="middle" class="pulse-light">image 1</text><text x="1785" y="952" text-anchor="middle" class="pulse-light">image 2</text>
  <path d="M1785 970 V988 H430" fill="none" stroke="#15211e" stroke-width="1.5" stroke-dasharray="6 5" marker-end="url(#arrow-ink)"/>
  <text x="1110" y="983" text-anchor="middle" class="note">bright/dark = |0&gt;; dark/bright = |1&gt;; dark/dark = loss → replacement queue</text>

  <!-- Preparation microcycle -->
  <rect x="72" y="1012" width="830" height="378" class="panel"/>
  <text x="94" y="1043" class="section">II. METASTABLE PREPARATION MICROCYCLE</text>
  <text x="94" y="1068" class="micro-title">Two distinct trap-off pumping stages</text>
  <text x="94" y="1090" class="micro-note">1.8 µs trap modulation; four 900 ns subwindows shown; ×50 each stage; 0.7 ms total preparation.</text>
  <line x1="250" y1="1120" x2="850" y2="1120" stroke="#15211e" stroke-width="1.4" marker-end="url(#arrow-ink)"/>
  <text x="250" y="1112" class="micro-note">0</text><text x="400" y="1112" text-anchor="middle" class="micro-note">900 ns</text><text x="550" y="1112" text-anchor="middle" class="micro-note">1.8 µs</text><text x="700" y="1112" text-anchor="middle" class="micro-note">2.7 µs</text><text x="850" y="1112" text-anchor="end" class="micro-note">3.6 µs</text>
  <g class="grid"><line x1="250" y1="1120" x2="250" y2="1328"/><line x1="400" y1="1120" x2="400" y2="1328"/><line x1="550" y1="1120" x2="550" y2="1328"/><line x1="700" y1="1120" x2="700" y2="1328"/><line x1="850" y1="1120" x2="850" y2="1328"/></g>
  <text x="226" y="1154" text-anchor="end" class="micro-label">488 nm tweezer</text><rect x="250" y="1134" width="600" height="32" class="lane"/><rect x="250" y="1140" width="150" height="20" fill="#415e78"/><rect x="550" y="1140" width="150" height="20" fill="#415e78"/><text x="325" y="1155" text-anchor="middle" class="pulse-light">TRAP ON</text><text x="475" y="1155" text-anchor="middle" class="pulse-label">TRAP OFF</text><text x="625" y="1155" text-anchor="middle" class="pulse-light">TRAP ON</text><text x="775" y="1155" text-anchor="middle" class="pulse-label">TRAP OFF</text>
  <text x="226" y="1200" text-anchor="end" class="micro-label">global σ+ 556 nm</text><rect x="250" y="1180" width="600" height="32" class="lane"/><rect x="410" y="1186" width="130" height="20" rx="3" fill="#26996d"/><text x="475" y="1201" text-anchor="middle" class="pulse-light">spin polarize</text>
  <text x="226" y="1246" text-anchor="end" class="micro-label">local 556 nm</text><rect x="250" y="1226" width="600" height="32" class="lane"/><rect x="710" y="1232" width="130" height="20" rx="3" fill="#33865b"/><text x="775" y="1247" text-anchor="middle" class="pulse-light">Raman pump</text>
  <text x="226" y="1292" text-anchor="end" class="micro-label">1539 nm</text><rect x="250" y="1272" width="600" height="32" class="lane"/><rect x="710" y="1278" width="130" height="20" rx="3" fill="#b67725"/><text x="775" y="1293" text-anchor="middle" class="pulse-light">Raman pump</text>
  <path d="M475 1318 V1342 H775 V1318" fill="none" stroke="#15211e" stroke-width="1.5"/>
  <text x="625" y="1362" text-anchor="middle" class="micro-note">Stage A: prepare ¹S₀, mF=+1/2  →  Stage B: pump through 5d6s ³D₁ into ³P₀</text>
  <text x="94" y="1380" class="micro-note">Both optical stages occupy trap-off windows; repeated cycling recovers population that decays through ³P₁.</text>

  <!-- Readout microcycle -->
  <rect x="930" y="1012" width="900" height="378" class="panel"/>
  <text x="952" y="1043" class="section">III. SPIN-RESOLVED READOUT MICROCYCLE</text>
  <text x="952" y="1068" class="micro-title">Raman transfer, de-pumping, and ordered images</text>
  <text x="952" y="1090" class="micro-note">One 1.8 µs modulation cycle is expanded below; the transfer/de-pump block repeats ×8 for each selected spin state.</text>
  <line x1="1130" y1="1120" x2="1760" y2="1120" stroke="#15211e" stroke-width="1.4" marker-end="url(#arrow-ink)"/>
  <text x="1130" y="1112" class="micro-note">0</text><text x="1445" y="1112" text-anchor="middle" class="micro-note">900 ns</text><text x="1760" y="1112" text-anchor="end" class="micro-note">1.8 µs</text>
  <g class="grid"><line x1="1130" y1="1120" x2="1130" y2="1308"/><line x1="1445" y1="1120" x2="1445" y2="1308"/><line x1="1760" y1="1120" x2="1760" y2="1308"/></g>
  <text x="1106" y="1154" text-anchor="end" class="micro-label">488 nm tweezer</text><rect x="1130" y="1134" width="630" height="32" class="lane"/><rect x="1130" y="1140" width="315" height="20" fill="#415e78"/><text x="1288" y="1155" text-anchor="middle" class="pulse-light">TRAP ON</text><text x="1603" y="1155" text-anchor="middle" class="pulse-label">TRAP OFF</text>
  <text x="1106" y="1200" text-anchor="end" class="micro-label">497 nm depump</text><rect x="1130" y="1180" width="630" height="32" class="lane"/><rect x="1130" y="1186" width="300" height="20" rx="3" fill="#2e9e9a"/><text x="1280" y="1201" text-anchor="middle" class="pulse-light">de-pump previous transfer</text>
  <text x="1106" y="1246" text-anchor="end" class="micro-label">649 nm</text><rect x="1130" y="1226" width="630" height="32" class="lane"/><rect x="1510" y="1232" width="140" height="20" rx="3" fill="#c74d36"/><text x="1580" y="1247" text-anchor="middle" class="pulse-light">400 ns</text>
  <text x="1106" y="1292" text-anchor="end" class="micro-label">770 nm</text><rect x="1130" y="1272" width="630" height="32" class="lane"/><rect x="1510" y="1278" width="140" height="20" rx="3" fill="#c12471"/><text x="1580" y="1293" text-anchor="middle" class="pulse-light">400 ns</text>
  <text x="952" y="1328" class="micro-note">649 and 770 nm are simultaneous; the following cycle de-pumps transferred ³P₂ population with 497 nm. Repeat ×8.</text>
  <rect x="952" y="1344" width="852" height="30" fill="#ffffff" stroke="#d7dfdb"/>
  <text x="970" y="1364" class="micro-label">select |0&gt; → map + depump 15 µs → image 4 ms → select |1&gt; → map + depump 15 µs → image 4 ms → |0&gt; / |1&gt; / loss</text>

  <text x="72" y="1424" class="note">Li et al. (2025): Figs. 2–4 and Appendix Fig. 9. Scheduled windows are apparatus-specific; pulse widths are not drawn in duration proportion.</text>
  <text x="72" y="1446" class="note">Separate reference scale (Ma et al. 2023): RF π pulse 2.0 ms; resonant 302 nm Rydberg π pulse 330 ns. These do not set the Li macrocycle width.</text>
</svg>
